<svg width="14" height="20" viewBox="0 0 14 20" fill="none" xmlns="http://www.w3.org/2000/svg">
<path fill-rule="evenodd" clip-rule="evenodd" d="M9.83899 13.375H8.69324L10.84 6.9115C10.8402 6.911 10.8405 6.9105 10.8405 6.90975L10.8412 6.90775C10.8437 6.90075 10.844 6.8935 10.846 6.88675C10.853 6.86225 10.8595 6.838 10.8625 6.813C10.8647 6.797 10.864 6.781 10.8642 6.76525C10.8647 6.74875 10.8662 6.7325 10.8652 6.71625C10.8642 6.6995 10.8602 6.68325 10.8575 6.667C10.855 6.65125 10.8535 6.636 10.8495 6.6205C10.8452 6.60575 10.839 6.59175 10.8337 6.57725C10.8277 6.56125 10.823 6.5455 10.8152 6.53C10.808 6.51525 10.7985 6.502 10.79 6.48775C10.7817 6.47425 10.7745 6.4605 10.7647 6.44775C10.7492 6.427 10.7307 6.4085 10.712 6.3905C10.7072 6.38575 10.7037 6.3805 10.699 6.37625L10.6975 6.375C10.697 6.3745 10.6965 6.374 10.696 6.3735L9.01149 4.87625C9.00599 4.87125 8.99999 4.8685 8.99424 4.86375C8.98074 4.85275 8.96699 4.843 8.95274 4.83375C8.93874 4.82475 8.92499 4.816 8.91049 4.80825C8.89649 4.801 8.88249 4.795 8.86824 4.789C8.85199 4.7825 8.83574 4.77625 8.81924 4.7715C8.80549 4.76725 8.79199 4.76475 8.77799 4.76175C8.76024 4.75825 8.74249 4.75525 8.72449 4.7535C8.71074 4.75225 8.69699 4.75225 8.68324 4.752C8.66524 4.752 8.64724 4.75225 8.62924 4.754C8.61524 4.75525 8.60149 4.75775 8.58749 4.7605C8.56999 4.76375 8.55274 4.7675 8.53574 4.77275C8.52174 4.77675 8.50824 4.782 8.49474 4.78725C8.47824 4.794 8.46199 4.801 8.44599 4.80925C8.43274 4.8165 8.42024 4.8245 8.40749 4.83275C8.39249 4.8425 8.37799 4.8525 8.36399 4.864C8.35849 4.8685 8.35249 4.8715 8.34724 4.87625L6.99174 6.081L5.63649 4.87625C5.63099 4.87125 5.62474 4.86825 5.61924 4.86375C5.60574 4.85275 5.59199 4.843 5.57799 4.83375C5.56374 4.82475 5.54999 4.816 5.53549 4.80825C5.52149 4.801 5.50749 4.795 5.49324 4.789C5.47699 4.7825 5.46074 4.77625 5.44424 4.7715C5.43049 4.76725 5.41674 4.76475 5.40274 4.76175C5.38499 4.75825 5.36724 4.75525 5.34949 4.7535C5.33549 4.75225 5.32199 4.75225 5.30799 4.752C5.28999 4.752 5.27199 4.75225 5.25424 4.754C5.23999 4.75525 5.22649 4.75775 5.21249 4.7605C5.19499 4.76375 5.17749 4.7675 5.16049 4.77275C5.14649 4.77675 5.13349 4.782 5.11999 4.78725C5.10324 4.794 5.08674 4.801 5.07074 4.8095C5.05774 4.8165 5.04524 4.8245 5.03274 4.8325C5.01774 4.84225 5.00299 4.8525 4.98874 4.86425C4.98349 4.86875 4.97749 4.8715 4.97224 4.87625L3.28649 6.37475C3.28624 6.37475 3.28599 6.375 3.28574 6.37525L3.28474 6.37625C3.27974 6.3805 3.27624 6.386 3.27149 6.39075C3.25249 6.40875 3.23424 6.4275 3.21874 6.448C3.20874 6.46125 3.20124 6.4755 3.19274 6.4895C3.18424 6.50325 3.17499 6.516 3.16799 6.5305C3.16049 6.546 3.15574 6.562 3.14974 6.578C3.14449 6.59225 3.13799 6.60625 3.13424 6.62125C3.13024 6.63625 3.12849 6.65175 3.12599 6.66725C3.12324 6.6835 3.11949 6.7 3.11824 6.71675C3.11724 6.7335 3.11899 6.74975 3.11949 6.76625C3.11999 6.782 3.11924 6.7975 3.12099 6.81325C3.12499 6.8425 3.13174 6.871 3.14074 6.8995C3.14149 6.9025 3.14174 6.90575 3.14274 6.90875L3.14299 6.9095L3.14374 6.9115L5.30574 13.375H4.16149L2.25599 10.1295C1.78774 9.2735 1.25024 8.13025 1.25024 6.875C1.25024 3.70425 3.82949 1.125 7.00024 1.125C10.1707 1.125 12.7502 3.70425 12.7502 6.875C12.7502 8.138 12.135 9.43325 11.774 10.0825L9.83899 13.375ZM5.30424 5.919L6.65974 7.12375C6.66699 7.13025 6.67524 7.13475 6.68274 7.14075C6.69349 7.1495 6.70449 7.1575 6.71574 7.165C6.73324 7.1765 6.75074 7.1865 6.76924 7.1955C6.78024 7.20125 6.79124 7.207 6.80249 7.21175C6.82349 7.22025 6.84499 7.2265 6.86674 7.23225C6.87624 7.2345 6.88574 7.238 6.89549 7.24C6.92749 7.24625 6.95949 7.25 6.99174 7.25C7.02374 7.25 7.05624 7.24625 7.08799 7.24C7.09824 7.238 7.10799 7.2345 7.11824 7.232C7.13924 7.22625 7.15999 7.22025 7.18049 7.212C7.19249 7.207 7.20399 7.201 7.21549 7.195C7.23324 7.186 7.25049 7.1765 7.26724 7.16525C7.27899 7.15775 7.28999 7.1495 7.30124 7.14075C7.30849 7.1345 7.31674 7.13025 7.32399 7.12375L8.67924 5.919L9.78849 6.905L7.63924 13.375H6.35999L4.19574 6.9045L5.30424 5.919ZM9.62524 16.077C9.62524 16.2175 9.41224 16.375 9.12749 16.375H8.75024H5.25024H4.87849C4.59049 16.375 4.37524 16.215 4.37524 16.0723V14.375H5.99849C5.99899 14.375 5.99949 14.3752 5.99999 14.3752C6.00049 14.3752 6.00099 14.375 6.00149 14.375H7.99874C7.99924 14.375 7.99974 14.3752 8.00024 14.3752C8.00074 14.3752 8.00124 14.375 8.00174 14.375H9.62524V16.077ZM8.25024 17.625C8.25024 18.3143 7.68924 18.875 7.00024 18.875C6.31099 18.875 5.75024 18.3143 5.75024 17.625V17.375H8.25024V17.625ZM13.7502 6.875C13.7502 3.153 10.722 0.125 7.00024 0.125C3.27824 0.125 0.250244 3.153 0.250244 6.875C0.250244 8.35675 0.853494 9.64925 1.38624 10.6225L3.37524 14.011V16.0723C3.37524 16.753 3.98124 17.3125 4.75024 17.3695V17.625C4.75024 18.8657 5.75949 19.875 7.00024 19.875C8.24074 19.875 9.25024 18.8657 9.25024 17.625V17.3697C10.0187 17.3152 10.6252 16.7568 10.6252 16.077V14.011L12.642 10.5787C13.1475 9.66975 13.7502 8.289 13.7502 6.875Z" fill="white"/>
</svg>
