<svg width="16" height="20" viewBox="0 0 16 20" fill="none" xmlns="http://www.w3.org/2000/svg">
<path fill-rule="evenodd" clip-rule="evenodd" d="M4.0185 0.125C3.735 0.125 3.451 0.19375 3.175 0.329C2.18 0.817 1.8245 1.80625 2.29075 2.79075C2.3305 2.8745 3.15025 4.577 4.91276 6.185C2.941 8.1275 2.16625 11.2483 2.129 11.401L0.653005 17.4177C0.529755 17.7817 0.573004 18.1402 0.635004 18.3855C0.853004 19.2517 1.62175 19.858 2.50375 19.858C2.65825 19.858 2.81225 19.839 2.962 19.8015C3.68775 19.6187 4.20775 19.1115 4.38975 18.4095C4.39125 18.4032 4.393 18.397 4.3945 18.3908C4.76075 16.8573 5.23701 15.1322 5.63151 13.934C6.04201 15.1333 6.54175 16.8635 6.9285 18.4023C7.1125 19.113 7.64625 19.6397 8.357 19.8188C8.50625 19.856 8.659 19.875 8.812 19.875C9.6955 19.875 10.4658 19.2655 10.6853 18.393C10.736 18.1915 10.7965 17.81 10.6673 17.4237L9.19375 11.4155C9.15175 11.2027 9.01775 10.2512 9.82025 9.71425C10.7345 10.3787 11.4478 11.376 11.8983 12.6278L11.9238 12.698C12.213 13.4695 12.8533 13.949 13.5945 13.949C13.8305 13.949 14.0735 13.901 14.3163 13.8068C15.3258 13.414 15.5905 12.385 15.3343 11.559C14.999 10.3385 13.6455 7.95875 13.4913 7.68975C13.489 7.686 13.4865 7.682 13.4843 7.678C13.0925 7.016 12.63 6.484 12.15 6.04825C13.316 5.68625 14.1653 4.59725 14.1653 3.31375C14.1653 1.7355 12.881 0.4515 11.3028 0.4515C9.72425 0.4515 8.44025 1.7355 8.44025 3.31375C8.44025 3.447 8.4495 3.57825 8.467 3.70675C7.357 2.98375 6.13175 2.02075 5.60026 1.07075C5.353 0.6325 4.792 0.125 4.0185 0.125ZM11.3028 1.4515C12.3313 1.4515 13.1653 2.28525 13.1653 3.31375C13.1653 4.3425 12.3313 5.17625 11.3028 5.17625C10.274 5.17625 9.44025 4.3425 9.44025 3.31375C9.44025 2.28525 10.274 1.4515 11.3028 1.4515ZM4.0185 1.125C4.4825 1.125 4.72775 1.55875 4.72775 1.55875C5.9615 3.765 9.85026 5.65325 9.85026 5.65325C10.8465 6.21075 11.8818 6.93325 12.6238 8.18725C12.6238 8.18725 14.0755 10.7195 14.3745 11.8413C14.3745 11.8413 14.627 12.613 13.9538 12.8748C13.82 12.9268 13.7008 12.949 13.5945 12.949C13.166 12.949 12.95 12.5865 12.86 12.3468C12.748 12.0478 12.0273 9.8025 9.89175 8.56975C7.70875 9.354 8.219 11.6383 8.219 11.6383L9.709 17.7145C9.7625 17.8415 9.74975 18.014 9.7155 18.149C9.60625 18.5842 9.222 18.875 8.812 18.875C8.74225 18.875 8.6715 18.8665 8.60125 18.849C8.22575 18.7545 7.98525 18.4948 7.89825 18.1583C7.89825 18.1583 6.28525 11.7417 5.61975 11.7417C4.954 11.7417 3.42175 18.1583 3.42175 18.1583C3.33475 18.4948 3.09425 18.737 2.71875 18.8315C2.64725 18.8492 2.57525 18.858 2.50375 18.858C2.0955 18.858 1.7135 18.574 1.6045 18.1402C1.5705 18.0052 1.55725 17.837 1.611 17.71L3.101 11.636C3.101 11.636 4.05825 7.67925 6.5035 6.19525C4.43225 4.68825 3.36275 2.718 3.1945 2.36275C3.02625 2.0075 2.99975 1.52875 3.61525 1.227C3.764 1.154 3.89875 1.125 4.0185 1.125Z" fill="white"/>
</svg>
