<svg width="20" height="20" viewBox="0 0 20 20" fill="none" xmlns="http://www.w3.org/2000/svg">
<path fill-rule="evenodd" clip-rule="evenodd" d="M11.7915 12.9901C12.5572 12.9901 13.1799 13.5681 13.1799 14.2781V18.5871C13.1799 18.7434 13.3576 18.8751 13.5678 18.8751H16.7062C16.9167 18.8751 17.0946 18.7434 17.0946 18.5871V9.97363C17.0946 9.26338 17.7173 8.68563 18.483 8.68563C18.7034 8.68563 18.8239 8.56738 18.8602 8.46613C18.8944 8.37088 18.8644 8.28363 18.7707 8.20613L10.3195 1.22838C10.1518 1.08963 9.84604 1.08988 9.67806 1.22838L1.22935 8.20613C1.13562 8.28363 1.10562 8.37088 1.13962 8.46588C1.17611 8.56738 1.2966 8.68563 1.51632 8.68563C2.28172 8.68563 2.9044 9.26338 2.9044 9.97363V18.5871C2.9044 18.7434 3.08238 18.8751 3.29285 18.8751H6.43246C6.64294 18.8751 6.82066 18.7434 6.82066 18.5871V14.2781C6.82066 13.5681 7.44334 12.9901 8.20899 12.9901H11.7915ZM13.5678 19.8751C12.8027 19.8751 12.18 19.2974 12.18 18.5871V14.2781C12.18 14.1219 12.002 13.9901 11.7915 13.9901H8.20899C7.99852 13.9901 7.82054 14.1219 7.82054 14.2781V18.5871C7.82054 19.2974 7.19787 19.8751 6.43246 19.8751H3.29285C2.52744 19.8751 1.90452 19.2974 1.90452 18.5871V9.97364C1.90452 9.81764 1.72679 9.68564 1.51632 9.68564C0.908145 9.68564 0.391209 9.33964 0.198732 8.80439C0.0202544 8.3079 0.171236 7.78315 0.592684 7.43515L9.04164 0.457409C9.57857 0.0139094 10.4197 0.0141594 10.9562 0.457409L19.4074 7.43515C19.8286 7.78315 19.9798 8.3079 19.8013 8.80439C19.6088 9.33964 19.0916 9.68564 18.484 9.68564C18.2725 9.68564 18.0945 9.81764 18.0945 9.97364V18.5871C18.0945 19.2974 17.4718 19.8751 16.7062 19.8751H13.5678Z" fill="white"/>
</svg>
