<svg width="20" height="20" viewBox="0 0 20 20" fill="none" xmlns="http://www.w3.org/2000/svg">
<path fill-rule="evenodd" clip-rule="evenodd" d="M10.0007 4.25925C6.83475 4.25925 4.25925 6.835 4.25925 10.001C4.25925 13.166 6.83475 15.7407 10.0007 15.7407C13.1657 15.7407 15.7407 13.166 15.7407 10.001C15.7407 6.835 13.1657 4.25925 10.0007 4.25925ZM10.0007 16.7407C6.2835 16.7407 3.25925 13.7173 3.25925 10.001C3.25925 6.28375 6.2835 3.25925 10.0007 3.25925C13.7172 3.25925 16.7407 6.28375 16.7407 10.001C16.7407 13.7173 13.7172 16.7407 10.0007 16.7407ZM10.001 1.125C5.10675 1.125 1.125 5.107 1.125 10.0017C1.125 14.8945 5.10675 18.875 10.001 18.875C14.8943 18.875 18.875 14.8945 18.875 10.0017C18.875 5.107 14.8943 1.125 10.001 1.125ZM10.001 19.875C4.5555 19.875 0.125 15.4457 0.125 10.0017C0.125 4.55575 4.5555 0.125 10.001 0.125C15.4455 0.125 19.875 4.55575 19.875 10.0017C19.875 15.4457 15.4455 19.875 10.001 19.875Z" fill="white"/>
</svg>
