<svg width="17" height="18" viewBox="0 0 17 18" fill="none" xmlns="http://www.w3.org/2000/svg">
<path fill-rule="evenodd" clip-rule="evenodd" d="M14.5837 14.6468C14.026 14.8513 13.4192 14.8343 12.92 14.6016C12.5067 14.4091 12.1995 14.0821 12.0545 13.6808C11.7207 12.7583 12.3142 11.6911 13.3772 11.3011C13.6365 11.2061 13.9062 11.1591 14.171 11.1591C14.4755 11.1591 14.7735 11.2218 15.0407 11.3463C15.4535 11.5388 15.7612 11.8658 15.9062 12.2671C15.9687 12.4398 15.9987 12.6176 15.9992 12.7951V12.7973C16.0005 13.5673 15.4472 14.3308 14.5837 14.6468ZM6.06797 3.13858L15.9992 1.58433V3.77958L6.06797 5.33358V3.13858ZM3.62147 16.3573C3.06372 16.5613 2.45722 16.5448 1.95797 16.3123C1.54497 16.1198 1.23747 15.7926 1.09247 15.3916C0.758468 14.4686 1.35172 13.4011 2.41522 13.0116C2.67422 12.9168 2.94397 12.8696 3.20847 12.8696C3.51322 12.8696 3.81097 12.9323 4.07847 13.0568C4.49147 13.2493 4.79897 13.5766 4.94397 13.9778C5.27797 14.9008 4.68472 15.9681 3.62147 16.3573ZM16.8245 0.62033C16.7135 0.52508 16.5675 0.48333 16.422 0.50608L5.49047 2.21683C5.24722 2.25483 5.06797 2.46458 5.06797 2.71083V5.91783V12.5061C4.89647 12.3681 4.70797 12.2471 4.50097 12.1506C3.76247 11.8063 2.87697 11.7776 2.07122 12.0726C0.492218 12.6511 -0.368783 14.2926 0.151967 15.7318C0.388217 16.3848 0.879468 16.9128 1.53522 17.2186C1.93522 17.4051 2.37822 17.4988 2.82847 17.4988C3.20972 17.4988 3.59597 17.4316 3.96522 17.2963C5.07722 16.8893 5.83022 15.9546 5.99847 14.9348C6.04147 14.8611 6.06797 14.7763 6.06797 14.6846V6.34558L15.9992 4.79183V10.7706C15.836 10.6431 15.658 10.5308 15.4635 10.4401C14.7245 10.0956 13.839 10.0673 13.0332 10.3621C11.4542 10.9411 10.5935 12.5823 11.114 14.0211C11.3502 14.6741 11.8415 15.2023 12.4972 15.5078C12.8972 15.6943 13.3402 15.7883 13.7907 15.7883C14.172 15.7883 14.558 15.7211 14.9275 15.5858C16.0775 15.1648 16.8432 14.1796 16.9752 13.1193C16.9895 13.0731 16.9992 13.0248 16.9992 12.9741V4.20758V1.00008C16.9992 0.85408 16.9352 0.71508 16.8245 0.62033Z" fill="white"/>
</svg>
