<svg width="20" height="20" viewBox="0 0 22 21" fill="none" xmlns="http://www.w3.org/2000/svg">
<path fill-rule="evenodd" clip-rule="evenodd" d="M12 13.7162C10.28 13.7162 8.88075 12.317 8.88075 10.597C8.88075 8.87725 10.28 7.47775 12 7.47775C13.72 7.47775 15.1193 8.87725 15.1193 10.597C15.1193 12.317 13.72 13.7162 12 13.7162ZM17.8263 18.6863C17.4933 16.5928 16.055 14.8637 14.1302 14.116C15.32 13.3927 16.1192 12.088 16.1192 10.597C16.1192 8.32575 14.2713 6.47775 12 6.47775C9.72875 6.47775 7.88075 8.32575 7.88075 10.597C7.88075 12.0883 8.67975 13.3927 9.86975 14.116C7.945 14.864 6.50675 16.5928 6.17375 18.6863C4.3075 17.058 3.125 14.6653 3.125 12C3.125 7.10625 7.10625 3.125 12 3.125C16.8938 3.125 20.875 7.10625 20.875 12C20.875 14.6653 19.6925 17.058 17.8263 18.6863ZM7.11075 19.4018C7.22425 16.7998 9.3705 14.7162 12 14.7162C14.6295 14.7162 16.7757 16.7998 16.8892 19.4018C15.4862 20.3318 13.8058 20.875 12 20.875C10.1942 20.875 8.51375 20.3318 7.11075 19.4018ZM12 2.125C6.555 2.125 2.125 6.55475 2.125 12C2.125 17.445 6.555 21.875 12 21.875C17.445 21.875 21.875 17.445 21.875 12C21.875 6.55475 17.445 2.125 12 2.125Z" fill="white"/>
</svg>
