<svg width="123" height="60" viewBox="0 0 123 60" fill="none" xmlns="http://www.w3.org/2000/svg">
<path d="M2.384 59.792C2.08533 59.3653 1.78667 58.832 1.488 58.192C1.14667 57.552 0.976 56.6773 0.976 55.568C0.976 54.672 1.296 53.3707 1.936 51.664C2.576 50 3.42933 48.1013 4.496 45.968C5.52 43.8347 6.69333 41.6373 8.016 39.376C9.296 37.072 10.5973 34.896 11.92 32.848C11.1093 33.6587 10.2773 34.384 9.424 35.024C9.25333 35.152 9.12533 35.216 9.04 35.216C8.912 35.216 8.848 35.1307 8.848 34.96C8.848 34.8747 8.912 34.7253 9.04 34.512C9.12533 34.2987 9.296 34.0853 9.552 33.872C10.4053 33.1467 11.4293 32.1653 12.624 30.928C13.8187 29.648 15.056 28.1973 16.336 26.576C17.3173 25.3387 18.1707 24.2507 18.896 23.312C19.6213 22.3307 20.1973 21.6267 20.624 21.2C21.0933 20.7307 21.52 20.368 21.904 20.112C22.288 19.856 22.6933 19.728 23.12 19.728C23.5893 19.728 24.1227 19.856 24.72 20.112C25.36 20.3253 25.9573 20.7307 26.512 21.328C26.0427 21.8827 25.424 22.672 24.656 23.696C23.888 24.72 23.1627 25.7013 22.48 26.64C23.4613 25.488 24.7627 24.464 26.384 23.568C28.0053 22.672 29.52 22.224 30.928 22.224C32.208 22.224 33.232 22.6293 34 23.44C34.768 24.2507 35.152 25.3173 35.152 26.64C35.152 28.0907 34.7467 29.6907 33.936 31.44C33.1253 33.1467 32.0373 34.8107 30.672 36.432C29.008 38.3947 27.152 39.9947 25.104 41.232C23.0987 42.4693 21.264 43.088 19.6 43.088C18.4053 43.088 17.4667 42.7467 16.784 42.064C16.1013 41.3813 15.76 40.3787 15.76 39.056C15.76 37.6907 16.0587 36.2187 16.656 34.64C15.504 36.0907 14.2667 37.7547 12.944 39.632C11.664 41.5093 10.4053 43.4293 9.168 45.392C7.93067 47.3547 6.82133 49.232 5.84 51.024C4.816 52.816 4.00533 54.3947 3.408 55.76C2.81067 57.1253 2.512 58.1493 2.512 58.832C2.512 59.1733 2.55467 59.3867 2.64 59.472C2.768 59.6427 2.78933 59.7493 2.704 59.792C2.576 59.8773 2.46933 59.8773 2.384 59.792ZM19.28 42.384C20.5173 42.384 21.7333 42 22.928 41.232C24.1653 40.4213 25.2747 39.376 26.256 38.096C27.2373 36.816 28.0267 35.4507 28.624 34C29.2213 32.5493 29.52 31.184 29.52 29.904C29.52 28.752 29.2427 27.856 28.688 27.216C28.176 26.576 27.4507 26.256 26.512 26.256C25.4027 26.256 24.144 26.7467 22.736 27.728C21.328 28.6667 20.048 30.032 18.896 31.824C18.0427 33.0613 17.424 34.32 17.04 35.6C16.6987 36.8373 16.528 37.9467 16.528 38.928C16.528 40.1653 16.784 41.0613 17.296 41.616C17.808 42.128 18.4693 42.384 19.28 42.384ZM49.9595 22.416C49.3622 22.416 48.9142 22.224 48.6155 21.84C48.3168 21.456 48.1675 21.0507 48.1675 20.624C48.1675 19.7707 48.5728 18.9387 49.3835 18.128C50.1942 17.2747 51.0475 16.848 51.9435 16.848C52.5408 16.848 52.9888 17.04 53.2875 17.424C53.5862 17.808 53.7355 18.2133 53.7355 18.64C53.7355 19.536 53.3302 20.3893 52.5195 21.2C51.7515 22.0107 50.8982 22.416 49.9595 22.416ZM40.1675 42.064C38.4182 42.064 37.2235 41.7013 36.5835 40.976C35.9862 40.208 35.6875 39.3547 35.6875 38.416C35.6875 37.648 35.8155 36.9227 36.0715 36.24C36.3275 35.5147 36.5408 35.0027 36.7115 34.704C36.9675 34.2773 37.3088 33.7867 37.7355 33.232C38.2048 32.6773 38.7168 32.08 39.2715 31.44C38.4182 32.1653 37.6075 32.8693 36.8395 33.552C36.1142 34.2347 35.5168 34.7467 35.0475 35.088C34.9195 35.216 34.7915 35.28 34.6635 35.28C34.4928 35.28 34.4075 35.1733 34.4075 34.96C34.4075 34.6187 34.6422 34.2773 35.1115 33.936C36.2208 32.9973 37.2875 31.9733 38.3115 30.864C39.3782 29.7547 40.3808 28.7307 41.3195 27.792C42.2582 26.8107 43.0902 26.128 43.8155 25.744C44.5835 25.3173 45.2022 25.04 45.6715 24.912C46.1408 24.784 46.5248 24.72 46.8235 24.72C47.2928 24.72 47.6342 24.8053 47.8475 24.976C48.0608 25.104 48.1035 25.2533 47.9755 25.424C47.2502 26.1493 46.5248 27.088 45.7995 28.24C45.1168 29.3493 44.4768 30.5227 43.8795 31.76C43.2822 32.9973 42.7915 34.1707 42.4075 35.28C42.0662 36.3893 41.8955 37.328 41.8955 38.096C41.8955 39.1627 42.3222 39.696 43.1755 39.696C43.9862 39.696 45.0315 39.3333 46.3115 38.608C47.6342 37.84 48.9995 36.88 50.4075 35.728C51.8582 34.576 53.2022 33.4453 54.4395 32.336C54.6102 32.1653 54.7595 32.08 54.8875 32.08C55.1008 32.08 55.2075 32.1867 55.2075 32.4C55.2502 32.6133 55.2075 32.7627 55.0795 32.848C53.6715 34.1707 52.0715 35.5573 50.2795 37.008C48.5302 38.416 46.7595 39.6107 44.9675 40.592C43.2182 41.5733 41.6182 42.064 40.1675 42.064ZM55.6805 47.056C54.7418 46.2027 54.1018 45.4133 53.7605 44.688C53.4618 44.0053 53.3125 43.0453 53.3125 41.808C53.3125 40.528 53.4832 39.0987 53.8245 37.52C54.2085 35.9413 54.7418 34.2987 55.4245 32.592C54.9978 33.0187 54.5498 33.4453 54.0805 33.872C53.6112 34.2987 53.1418 34.6827 52.6725 35.024C52.5445 35.152 52.4165 35.216 52.2885 35.216C52.1605 35.216 52.0965 35.152 52.0965 35.024C52.0965 34.7253 52.3525 34.32 52.8645 33.808C53.5472 33.2107 54.1872 32.5493 54.7845 31.824C55.3818 31.0987 56.0432 30.288 56.7685 29.392C58.9018 24.656 61.2912 20.3893 63.9365 16.592C66.5818 12.7947 69.7818 9.14666 73.5365 5.648C75.4565 3.89867 77.2485 2.64 78.9125 1.872C80.6192 1.104 82.1125 0.719997 83.3925 0.719997C84.6725 0.719997 85.6752 1.06133 86.4005 1.744C87.1258 2.42666 87.4885 3.32266 87.4885 4.432C87.4885 5.49866 87.1258 6.71466 86.4005 8.08C85.7178 9.44533 84.5872 10.8747 83.0085 12.368C81.8992 13.4347 80.5765 14.544 79.0405 15.696C77.5045 16.8053 75.9258 17.8507 74.3045 18.832C72.6832 19.8133 71.1685 20.624 69.7605 21.264C69.6752 21.3067 69.5898 21.3493 69.5045 21.392C69.4192 21.392 69.3338 21.392 69.2485 21.392C68.9498 21.392 68.8005 21.2853 68.8005 21.072C68.8005 20.816 69.0352 20.6027 69.5045 20.432C70.8272 19.8347 72.2778 19.024 73.8565 18C75.4778 16.976 77.0352 15.8667 78.5285 14.672C80.0218 13.4773 81.2805 12.3467 82.3045 11.28C83.5845 9.91467 84.5018 8.76266 85.0565 7.824C85.6538 6.84266 85.9525 6.096 85.9525 5.584C85.9525 4.944 85.5898 4.624 84.8645 4.624C84.0965 4.624 82.9872 5.02933 81.5365 5.84C80.1285 6.608 78.5072 7.80266 76.6725 9.424C74.4112 11.4293 72.1712 13.7333 69.9525 16.336C67.7765 18.9387 65.7712 21.52 63.9365 24.08C62.1445 26.5973 60.6512 28.8373 59.4565 30.8C61.1205 28.5813 62.7418 26.8533 64.3205 25.616C65.8992 24.3787 67.3498 23.4827 68.6725 22.928C69.7818 22.5013 70.8272 22.288 71.8085 22.288C72.9178 22.288 73.8138 22.5653 74.4965 23.12C75.1792 23.6747 75.5205 24.3787 75.5205 25.232C75.5205 26.0853 75.2218 27.0453 74.6245 28.112C74.0698 29.1787 73.1098 30.224 71.7445 31.248C70.6778 32.016 69.2485 32.6987 67.4565 33.296C65.7072 33.8507 64.0645 34.128 62.5285 34.128C61.6325 34.128 60.8645 34 60.2245 33.744C61.0778 34.8107 62.1445 35.856 63.4245 36.88C64.7045 37.8613 66.0058 38.672 67.3285 39.312C68.6938 39.9093 69.8885 40.208 70.9125 40.208C71.6378 40.208 72.2992 40.016 72.8965 39.632C73.4938 39.248 73.7925 38.7787 73.7925 38.224C73.7925 38.1387 73.8352 38.096 73.9205 38.096C74.0485 38.096 74.1125 38.1387 74.1125 38.224C74.1125 39.0347 73.7712 39.696 73.0885 40.208C72.4485 40.72 71.6592 41.0827 70.7205 41.296C70.2938 41.3813 69.8458 41.4667 69.3765 41.552C68.9498 41.5947 68.5018 41.616 68.0325 41.616C66.2832 41.616 64.6405 41.3173 63.1045 40.72C61.6112 40.08 60.3098 39.312 59.2005 38.416C58.1338 37.4773 57.3658 36.5813 56.8965 35.728C56.3418 37.0933 55.9152 38.4587 55.6165 39.824C55.3605 41.1467 55.2325 42.3627 55.2325 43.472C55.2325 44.9653 55.4885 46.032 56.0005 46.672C56.1285 46.8427 56.1285 46.9493 56.0005 46.992C55.8725 47.0773 55.7658 47.0987 55.6805 47.056ZM61.3125 33.424C62.3792 33.424 63.6378 33.168 65.0885 32.656C66.5818 32.144 67.7978 31.5253 68.7365 30.8C69.5045 30.2027 70.0592 29.5627 70.4005 28.88C70.7845 28.1973 70.9765 27.5787 70.9765 27.024C70.9765 26.4267 70.7845 25.936 70.4005 25.552C70.0592 25.1253 69.5472 24.912 68.8645 24.912C68.1818 24.912 67.3712 25.1467 66.4325 25.616C65.4938 26.0427 64.4058 26.8107 63.1685 27.92C62.4858 28.56 61.7818 29.2213 61.0565 29.904C60.3738 30.5867 59.7338 31.2907 59.1365 32.016C59.2218 32.2293 59.3285 32.464 59.4565 32.72C59.5845 32.9333 59.7338 33.0827 59.9045 33.168C60.0752 33.2533 60.2885 33.3173 60.5445 33.36C60.8005 33.4027 61.0565 33.424 61.3125 33.424ZM81.2705 42.64C79.3932 42.64 77.8145 42.192 76.5345 41.296C75.2972 40.3573 74.6785 39.0133 74.6785 37.264C74.6785 35.3867 75.1265 33.6373 76.0225 32.016C76.9185 30.3947 78.1132 28.9867 79.6065 27.792C81.0998 26.5547 82.7212 25.5947 84.4705 24.912C86.2625 24.2293 88.0332 23.888 89.7825 23.888C91.5318 23.888 92.8332 24.208 93.6865 24.848C94.5398 25.4453 94.9665 26.192 94.9665 27.088C94.9665 27.9413 94.5612 28.8587 93.7505 29.84C92.9825 30.7787 91.8518 31.6107 90.3585 32.336C89.4198 32.7627 88.3318 33.1467 87.0945 33.488C85.8998 33.7867 84.8545 33.936 83.9585 33.936C83.2758 33.936 82.9345 33.8293 82.9345 33.616C82.9345 33.4453 83.2332 33.36 83.8305 33.36C84.3852 33.36 85.2385 33.2107 86.3905 32.912C87.5852 32.5707 88.7372 32.1227 89.8465 31.568C91.0838 30.8853 91.9585 30.2027 92.4705 29.52C92.9825 28.8373 93.2385 28.2187 93.2385 27.664C93.2385 27.152 93.0252 26.7253 92.5985 26.384C92.2145 26.0427 91.6598 25.872 90.9345 25.872C90.2518 25.872 89.4838 26.064 88.6305 26.448C87.3932 27.0027 86.1132 27.92 84.7905 29.2C83.5105 30.4373 82.4438 31.8027 81.5905 33.296C80.7372 34.7893 80.3105 36.2187 80.3105 37.584C80.3105 38.5227 80.5665 39.312 81.0785 39.952C81.6332 40.592 82.4438 40.912 83.5105 40.912C84.6198 40.912 85.8998 40.5707 87.3505 39.888C88.8012 39.1627 90.2732 38.288 91.7665 37.264C93.2598 36.1973 94.6465 35.1307 95.9265 34.064C97.2065 32.9973 98.2305 32.1013 98.9985 31.376C99.2545 31.12 99.4465 30.992 99.5745 30.992C99.7025 30.992 99.7665 31.0987 99.7665 31.312C99.7665 31.6107 99.6385 31.8667 99.3825 32.08C97.7612 33.5733 95.9905 35.1307 94.0705 36.752C92.1932 38.3733 90.1665 39.76 87.9905 40.912C85.8572 42.0213 83.6172 42.5973 81.2705 42.64ZM106.413 42.064C104.578 42.064 103.341 41.7227 102.701 41.04C102.061 40.3147 101.741 39.5253 101.741 38.672C101.741 37.5627 102.167 36.3893 103.021 35.152C103.533 34.4267 104.109 33.616 104.749 32.72C105.389 31.7813 105.986 30.9067 106.541 30.096C107.095 29.2853 107.479 28.7093 107.693 28.368C107.991 27.9413 108.162 27.664 108.205 27.536C108.29 27.3653 108.333 27.1947 108.333 27.024C108.333 26.768 108.162 26.5333 107.821 26.32C107.522 26.064 107.01 25.936 106.285 25.936C106.071 25.936 105.879 25.9573 105.709 26C105.581 26 105.431 26 105.26 26C104.919 26 104.727 25.9787 104.685 25.936L104.493 26.192C103.298 27.7707 102.018 29.328 100.653 30.864C99.2872 32.3573 97.7938 33.744 96.1725 35.024C96.0018 35.152 95.8738 35.216 95.7885 35.216C95.6178 35.216 95.5325 35.1307 95.5325 34.96C95.5325 34.6187 95.7885 34.2347 96.3005 33.808C97.6232 32.6987 98.9245 31.4613 100.205 30.096C101.485 28.688 102.637 27.216 103.661 25.68C103.277 25.424 103.085 24.912 103.085 24.144C103.085 22.992 103.447 21.7547 104.173 20.432C104.685 19.536 105.239 18.8747 105.837 18.448C106.477 17.9787 107.031 17.744 107.501 17.744C108.397 17.744 108.845 18.2773 108.845 19.344C108.845 20.0267 108.589 20.88 108.077 21.904C107.863 22.416 107.437 23.0773 106.797 23.888C106.199 24.656 105.602 25.2107 105.005 25.552C105.901 25.2533 107.031 25.0613 108.397 24.976C109.805 24.848 110.978 24.784 111.917 24.784C112.471 24.784 113.154 24.9547 113.965 25.296C114.775 25.5947 115.181 26.1493 115.181 26.96C115.181 27.5147 114.925 28.112 114.413 28.752C114.285 28.9227 113.943 29.328 113.389 29.968C112.834 30.608 112.215 31.376 111.533 32.272C110.893 33.168 110.295 34.064 109.741 34.96C109.186 35.7707 108.738 36.5173 108.397 37.2C108.098 37.8827 107.949 38.4587 107.949 38.928C107.949 39.6107 108.333 39.952 109.101 39.952C109.997 39.952 111.191 39.5253 112.685 38.672C114.178 37.8187 115.778 36.7307 117.485 35.408C119.234 34.0427 120.834 32.6347 122.285 31.184C122.455 31.0133 122.605 30.928 122.733 30.928C122.903 30.928 122.989 31.0347 122.989 31.248C122.989 31.504 122.882 31.7387 122.669 31.952C121.175 33.4453 119.511 34.9813 117.677 36.56C115.885 38.096 114.007 39.3973 112.045 40.464C110.125 41.5307 108.247 42.064 106.413 42.064Z" fill="white"/>
</svg>
