<svg width="20" height="20" viewBox="0 0 20 20" fill="none" xmlns="http://www.w3.org/2000/svg">
<path fill-rule="evenodd" clip-rule="evenodd" d="M1.56659 13.9154C3.11634 16.9192 6.26209 18.8749 9.68984 18.8749C14.7258 18.8749 18.8226 14.7779 18.8226 9.74191C18.8226 6.18166 16.7603 2.98216 13.5968 1.48691C13.8116 2.31416 13.9198 3.16541 13.9198 4.02866C13.9198 9.61616 9.37409 14.1617 3.78684 14.1617C3.03759 14.1617 2.29459 14.0792 1.56659 13.9154ZM9.68984 19.8749C5.50084 19.8749 1.69109 17.2419 0.209836 13.3227C0.141336 13.1414 0.183586 12.9374 0.318086 12.7982C0.452836 12.6592 0.655336 12.6104 0.838836 12.6724C1.79134 12.9972 2.78309 13.1617 3.78684 13.1617C8.82283 13.1617 12.9198 9.06466 12.9198 4.02866C12.9198 2.92066 12.7218 1.83491 12.3313 0.801659C12.2628 0.620659 12.3051 0.41616 12.4396 0.277159C12.5743 0.138159 12.7778 0.0894093 12.9603 0.151659C17.0648 1.55116 19.8226 5.40541 19.8226 9.74191C19.8226 15.3292 15.2771 19.8749 9.68984 19.8749Z" fill="white"/>
</svg>
