<svg width="279" height="280" viewBox="0 0 279 280" fill="none" xmlns="http://www.w3.org/2000/svg">
<path d="M246.818 228.741C261.09 211.57 271.016 191.215 275.756 169.396C280.497 147.578 279.913 124.939 274.054 103.394C268.194 81.8487 257.232 62.0319 242.094 45.6196C226.957 29.2073 208.089 16.6824 187.087 9.10432C166.084 1.52628 143.566 -0.881928 121.436 2.08342C99.3067 5.04877 78.2168 13.3004 59.9506 26.1404C41.6845 38.9803 26.7796 56.0308 16.4967 75.8494C6.2138 95.668 0.855497 117.672 0.875053 139.999C0.882558 172.457 12.3205 203.875 33.1819 228.741L32.9831 228.91C33.6787 229.745 34.4737 230.46 35.1892 231.285C36.0836 232.309 37.0476 233.273 37.9717 234.266C40.7542 237.287 43.6162 240.189 46.6174 242.912C47.5316 243.747 48.4757 244.522 49.3999 245.317C52.5799 248.06 55.8493 250.663 59.238 253.088C59.6752 253.386 60.0727 253.774 60.51 254.082V253.962C83.7846 270.341 111.55 279.131 140.01 279.131C168.47 279.131 196.235 270.341 219.51 253.962V254.082C219.947 253.774 220.335 253.386 220.782 253.088C224.161 250.653 227.44 248.06 230.62 245.317C231.544 244.522 232.488 243.737 233.403 242.912C236.404 240.179 239.266 237.287 242.048 234.266C242.972 233.273 243.926 232.309 244.831 231.285C245.536 230.46 246.341 229.745 247.037 228.9L246.818 228.741ZM140 60.4992C148.845 60.4992 157.49 63.1219 164.844 68.0357C172.198 72.9495 177.93 79.9336 181.315 88.1049C184.699 96.2761 185.585 105.268 183.86 113.942C182.134 122.617 177.875 130.585 171.621 136.839C165.367 143.093 157.399 147.352 148.724 149.077C140.05 150.803 131.058 149.917 122.887 146.533C114.716 143.148 107.732 137.416 102.818 130.062C97.904 122.708 95.2813 114.063 95.2813 105.218C95.2813 93.3578 99.9927 81.9834 108.379 73.5971C116.766 65.2107 128.14 60.4992 140 60.4992ZM60.5696 228.741C60.742 215.693 66.0446 203.237 75.3304 194.069C84.6161 184.9 97.1382 179.756 110.188 179.749H169.813C182.862 179.756 195.384 184.9 204.67 194.069C213.955 203.237 219.258 215.693 219.43 228.741C197.636 248.381 169.338 259.25 140 259.25C110.662 259.25 82.3641 248.381 60.5696 228.741Z" fill="#F2EDED"/>
</svg>
